<svg width="119" height="41" viewBox="0 0 119 41" fill="none" xmlns="http://www.w3.org/2000/svg">
<g clip-path="url(#clip0_788_14085)">
<path d="M50.3086 16.6275C50.6755 16.4807 51.1158 16.2606 51.4827 16.1138C51.923 15.8937 52.2899 15.6735 52.7302 15.4534C53.5165 14.9954 54.2332 14.427 54.8582 13.7656H56.9862V27.6346H53.9776V17.5814C53.5627 17.869 53.1202 18.1148 52.6568 18.3152C52.1807 18.5423 51.6905 18.7384 51.1892 18.9023L50.3086 16.6275Z" fill="#111111"/>
<path d="M71.0014 20.5808C71.0014 22.929 70.5611 24.6901 69.6805 25.9376C69.2533 26.5072 68.6994 26.9695 68.0625 27.2879C67.4257 27.6064 66.7235 27.7721 66.0115 27.7721C65.2995 27.7721 64.5973 27.6064 63.9604 27.2879C63.3236 26.9695 62.7697 26.5072 62.3425 25.9376C61.4619 24.6901 61.0216 22.929 61.0216 20.5808C61.0172 19.5423 61.1404 18.5072 61.3885 17.4988C61.5955 16.6864 61.9432 15.9165 62.4158 15.224C62.8254 14.6285 63.3814 14.1483 64.0302 13.8298C64.6674 13.5053 65.3699 13.3296 66.0849 13.3161C66.8017 13.2865 67.5144 13.4392 68.1561 13.76C68.7978 14.0809 69.3475 14.5594 69.7539 15.1506C70.6345 16.3981 71.0014 18.306 71.0014 20.5808ZM67.9194 20.5808C67.933 19.944 67.9085 19.3069 67.846 18.6729C67.798 18.1751 67.6997 17.6833 67.5525 17.2053C67.4361 16.8449 67.2348 16.5177 66.9654 16.2514C66.7054 16.0127 66.3645 15.8816 66.0115 15.8845C65.6611 15.895 65.3247 16.0244 65.0575 16.2514C64.7882 16.5177 64.5869 16.8449 64.4705 17.2053C64.2884 17.6738 64.1891 18.1704 64.177 18.6729C64.113 19.3067 64.0884 19.9439 64.1036 20.5808C64.0884 21.2177 64.113 21.8549 64.177 22.4887C64.2175 22.9877 64.316 23.4802 64.4705 23.9563C64.5869 24.3168 64.7882 24.644 65.0575 24.9103C65.3176 25.1489 65.6585 25.28 66.0115 25.2772C66.3619 25.2666 66.6983 25.1372 66.9654 24.9103C67.2348 24.644 67.4361 24.3168 67.5525 23.9563C67.6997 23.4783 67.798 22.9866 67.846 22.4887C67.9116 21.855 67.9361 21.2177 67.9194 20.5808Z" fill="#111111"/>
<path d="M82.5972 15.2332C82.744 15.7469 82.9641 16.4073 83.1109 17.0678C83.331 17.7282 83.4778 18.462 83.6979 19.1958L84.3584 21.3972C84.5785 22.131 84.7987 22.7915 85.0188 23.4519C85.1656 22.7915 85.3857 22.0576 85.5325 21.2505C85.6792 20.4433 85.8994 19.6361 86.0461 18.7555C86.1929 17.8749 86.3396 17.0678 86.4864 16.1872C86.6332 15.3066 86.7799 14.4994 86.9267 13.7656H90.1554C89.7152 16.1138 89.1281 18.462 88.5411 20.8102C87.954 23.2317 87.2936 25.4332 86.5598 27.6346H83.6979C83.2577 26.3871 82.744 24.9929 82.3037 23.5986C81.8634 22.2044 81.4231 20.8102 80.9829 19.3426C80.5426 20.7368 80.1023 22.131 79.7354 23.5986C79.3685 25.0663 78.8548 26.3137 78.4145 27.6346H75.5527C74.8189 25.5065 74.1585 23.2317 73.5714 20.8102C72.9844 18.3886 72.3973 16.0404 71.957 13.7656H75.3325L75.7728 16.1872C75.9196 17.0678 76.0664 17.8749 76.2865 18.7555C76.4333 19.6361 76.6534 20.4433 76.8002 21.2505C76.943 21.9974 77.1392 22.733 77.3872 23.4519C77.6073 22.7915 77.8275 22.131 78.121 21.3972L78.7814 19.1958C79.0016 18.462 79.2217 17.7282 79.3685 17.0678C79.5152 16.4073 79.7354 15.7469 79.8821 15.2332H82.5972Z" fill="#111111"/>
<path d="M90.8887 22.4194C90.849 20.8795 91.4004 19.3828 92.4297 18.2367C92.8911 17.7864 93.4408 17.4366 94.0441 17.2094C94.6298 16.9821 95.2505 16.858 95.8786 16.8425C96.5315 16.8074 97.1843 16.9138 97.7922 17.1545C98.4001 17.3951 98.9489 17.7643 99.4009 18.2367C100.357 19.3548 100.832 20.8057 100.722 22.2726V22.8597C100.734 23.0582 100.709 23.2572 100.648 23.4467H93.8973C93.9317 23.7398 94.0279 24.0222 94.1798 24.2753C94.3316 24.5283 94.5355 24.7461 94.7779 24.9143C95.3911 25.299 96.1105 25.4789 96.8326 25.428C97.3734 25.4155 97.9127 25.3665 98.4469 25.2813C98.9004 25.2126 99.3439 25.0894 99.7678 24.9143L100.135 27.3359C99.9226 27.4316 99.7013 27.5054 99.4743 27.5561L98.5937 27.7762C98.2584 27.8661 97.9135 27.9154 97.5664 27.923C97.2028 27.9839 96.8341 28.0085 96.4657 27.9963C95.6133 28.0125 94.766 27.863 93.9707 27.5561C93.3058 27.2963 92.705 26.8958 92.2096 26.382C91.7412 25.878 91.3903 25.2766 91.1822 24.6208C90.9768 23.9054 90.8779 23.1636 90.8887 22.4194ZM97.8599 21.2453C97.8465 20.9949 97.7971 20.7478 97.7131 20.5115C97.6194 20.2767 97.4961 20.0547 97.3462 19.8511C97.2044 19.6437 96.998 19.4889 96.7592 19.4108C96.4857 19.2787 96.1801 19.2278 95.8786 19.264C95.5796 19.271 95.2831 19.3204 94.998 19.4108C94.7895 19.5396 94.593 19.6869 94.411 19.8511C94.2463 20.0448 94.1215 20.2693 94.0441 20.5115C93.9707 20.805 93.8973 21.0252 93.824 21.2453H97.8599Z" fill="#111111"/>
<path d="M112.829 22.3467C112.826 23.1195 112.702 23.8871 112.462 24.6215C112.239 25.2869 111.862 25.8903 111.361 26.3826C110.896 26.8807 110.317 27.2584 109.673 27.4833C108.915 27.7295 108.123 27.8534 107.325 27.8502C106.957 27.8624 106.588 27.8378 106.225 27.7769C105.858 27.7035 105.417 27.7035 105.051 27.6301L103.95 27.4099C103.583 27.3366 103.289 27.2632 102.996 27.1898V12.5137L106.004 12V17.21C106.692 16.8798 107.443 16.7044 108.206 16.6964C108.883 16.6979 109.554 16.8222 110.187 17.0633C110.735 17.3454 111.231 17.7175 111.655 18.164C112.049 18.695 112.347 19.2911 112.535 19.9251C112.746 20.7147 112.844 21.5298 112.829 22.3467ZM109.82 22.2733C109.82 20.3654 109.086 19.4115 107.692 19.4115C107.394 19.4245 107.098 19.4738 106.812 19.5582C106.551 19.611 106.303 19.7104 106.078 19.8517V25.2819C106.225 25.2819 106.445 25.3553 106.665 25.3553H107.399C107.746 25.3698 108.092 25.3045 108.41 25.1646C108.728 25.0247 109.009 24.8138 109.233 24.5481C109.624 23.8542 109.827 23.0699 109.82 22.2733Z" fill="#111111"/>
<path d="M6.96895 13.6063L20.3208 0.254463C20.4869 0.0913739 20.7103 0 20.9431 0C21.1759 0 21.3993 0.0913739 21.5654 0.254463L40.8011 19.6033C40.9642 19.7694 41.0556 19.9928 41.0556 20.2256C41.0556 20.4584 40.9642 20.6819 40.8011 20.8479L40.6879 20.9611C39.9206 21.7223 38.8835 22.1494 37.8026 22.1494C36.7217 22.1494 35.6846 21.7223 34.9172 20.9611L21.3391 7.38297C21.173 7.21988 20.9496 7.12851 20.7168 7.12851C20.484 7.12851 20.2606 7.21988 20.0945 7.38297L12.5134 14.9641C11.746 15.7253 10.7089 16.1524 9.628 16.1524C8.54713 16.1524 7.51005 15.7253 6.74265 14.9641C6.66446 14.7368 6.64421 14.4936 6.68372 14.2565C6.72324 14.0194 6.82128 13.7959 6.96895 13.6063Z" fill="#111111"/>
<path d="M35.0318 26.3909L21.68 39.7427C21.5139 39.9058 21.2904 39.9972 21.0576 39.9972C20.8249 39.9972 20.6014 39.9058 20.4353 39.7427L1.08649 20.3939C0.923405 20.2278 0.832031 20.0043 0.832031 19.7716C0.832031 19.5388 0.923405 19.3153 1.08649 19.1492C1.85389 18.388 2.89097 17.9609 3.97184 17.9609C5.05272 17.9609 6.0898 18.388 6.85719 19.1492L20.3222 32.6142C20.4882 32.7773 20.7117 32.8686 20.9445 32.8686C21.1773 32.8686 21.4007 32.7773 21.5668 32.6142L29.1479 25.0331C29.9153 24.2719 30.9524 23.8448 32.0333 23.8448C33.1142 23.8448 34.1512 24.2719 34.9186 25.0331C35.0186 25.1124 35.1013 25.2115 35.1616 25.324C35.2218 25.4366 35.2584 25.5603 35.269 25.6875C35.2796 25.8147 35.264 25.9428 35.2232 26.0637C35.1824 26.1847 35.1173 26.2961 35.0318 26.3909Z" fill="#111111"/>
<path d="M22.3596 19.6035L19.0782 16.3222C18.6409 15.8427 18.3984 15.2172 18.3984 14.5683C18.3984 13.9194 18.6409 13.2939 19.0782 12.8145L19.1913 12.7013C19.4155 12.4604 19.6869 12.2682 19.9887 12.1367C20.2904 12.0053 20.616 11.9375 20.9452 11.9375C21.2743 11.9375 21.5999 12.0053 21.9016 12.1367C22.2034 12.2682 22.4748 12.4604 22.699 12.7013L29.4881 19.4904C29.6512 19.6565 29.7425 19.88 29.7425 20.1127C29.7425 20.3455 29.6512 20.569 29.4881 20.7351L22.9253 27.2978C22.7011 27.5388 22.4297 27.731 22.1279 27.8624C21.8262 27.9938 21.5006 28.0617 21.1715 28.0617C20.8423 28.0617 20.5167 27.9938 20.215 27.8624C19.9132 27.731 19.6418 27.5388 19.4176 27.2978C19.1766 27.0736 18.9845 26.8022 18.853 26.5005C18.7216 26.1987 18.6538 25.8731 18.6538 25.544C18.6538 25.2148 18.7216 24.8892 18.853 24.5875C18.9845 24.2857 19.1766 24.0143 19.4176 23.7901L22.4727 20.7351C22.5914 20.5638 22.6451 20.3558 22.6244 20.1485C22.6037 19.9411 22.5098 19.748 22.3596 19.6035Z" fill="#111111"/>
<path d="M18.2838 19.2625L17.1523 18.131C16.9281 17.89 16.6567 17.6979 16.3549 17.5664C16.0531 17.435 15.7275 17.3672 15.3984 17.3672C15.0693 17.3672 14.7437 17.435 14.4419 17.5664C14.1402 17.6979 13.8688 17.89 13.6446 18.131C13.2073 18.6104 12.9648 19.236 12.9648 19.8849C12.9648 20.5338 13.2073 21.1593 13.6446 21.6387C13.8688 21.8797 14.1402 22.0719 14.4419 22.2033C14.7437 22.3347 15.0693 22.4025 15.3984 22.4025C15.7275 22.4025 16.0531 22.3347 16.3549 22.2033C16.6567 22.0719 16.9281 21.8797 17.1523 21.6387L18.2838 20.5072C18.4469 20.3411 18.5382 20.1176 18.5382 19.8849C18.5382 19.6521 18.4469 19.4286 18.2838 19.2625Z" fill="#111111"/>
</g>
<defs>
<clipPath id="clip0_788_14085">
<rect width="118" height="40" fill="white" transform="translate(0.832031 0.429688)"/>
</clipPath>
</defs>
</svg>
