<svg width="135" height="40" viewBox="0 0 135 40" fill="none" xmlns="http://www.w3.org/2000/svg">
<path fill-rule="evenodd" clip-rule="evenodd" d="M88.2867 15.6129C89.3986 15.6129 90.2712 15.9596 90.9072 16.654C91.5438 17.3474 91.8834 18.3369 91.9294 19.621C91.9391 19.7458 91.9442 19.9138 91.9456 20.1255L91.946 20.2578C91.946 20.5329 91.941 20.7509 91.9294 20.9112C91.8834 22.151 91.5393 23.1255 90.8989 23.8366C90.2568 24.5477 89.3853 24.9032 88.2867 24.9032C87.1747 24.9032 86.3437 24.5244 85.7946 23.7678V27.5696C85.7946 27.6961 85.7542 27.7992 85.6738 27.8791C85.5941 27.9601 85.4911 28 85.3647 28H83.1481C83.0228 28 82.9159 27.9601 82.8306 27.8791C82.7442 27.7992 82.7009 27.6961 82.7009 27.5696V16.2147C82.7009 16.0888 82.7442 15.9851 82.8306 15.9058C82.9159 15.8248 83.0228 15.7843 83.1481 15.7843H85.1929C85.3187 15.7843 85.4223 15.8248 85.5015 15.9058C85.583 15.9851 85.6223 16.0888 85.6223 16.2147V16.8343C86.2417 16.0195 87.1287 15.6129 88.2867 15.6129ZM55.1209 12.516C56.1298 12.516 57.0023 12.6907 57.742 13.0407C58.4805 13.3907 59.0484 13.8261 59.4423 14.3475C59.8385 14.87 60.0467 15.3831 60.0706 15.8879C60.0706 15.991 60.0351 16.0798 59.967 16.1547C59.8983 16.2295 59.813 16.2667 59.7099 16.2667H57.3032C57.0517 16.2667 56.8567 16.163 56.7198 15.9566C56.6511 15.7159 56.4722 15.5123 56.1868 15.3459C55.9004 15.1795 55.5453 15.0963 55.1209 15.0963C54.64 15.0963 54.2682 15.1823 54.0039 15.3543C53.7408 15.5268 53.6095 15.7786 53.6095 16.1114C53.6095 16.4448 53.7801 16.7049 54.1247 16.8946C54.4682 17.0838 55.1104 17.2762 56.0484 17.4709C57.1253 17.6662 57.9824 17.9097 58.6174 18.202C59.2539 18.4943 59.7237 18.8731 60.0274 19.3374C60.331 19.8022 60.4833 20.3896 60.4833 21.1008C60.4833 21.8812 60.2595 22.5579 59.813 23.1309C59.3658 23.705 58.7476 24.1437 57.9564 24.4471C57.1658 24.7511 56.2611 24.9031 55.2416 24.9031C54.1297 24.9031 53.1845 24.7422 52.4056 24.4216C51.6266 24.1004 51.036 23.6761 50.6366 23.1481C50.2349 22.6211 50.0222 22.047 50 21.428C50 21.3248 50.0382 21.2389 50.1119 21.1701C50.1861 21.1008 50.2754 21.0663 50.3779 21.0663H52.6643C52.8011 21.0663 52.913 21.0891 52.9984 21.1357C53.0854 21.1811 53.179 21.2616 53.282 21.3764C53.4305 21.6516 53.6632 21.8784 53.979 22.0554C54.2932 22.2345 54.7142 22.3221 55.2416 22.3221C55.8594 22.3221 56.3353 22.2279 56.6677 22.0387C56.9996 21.8496 57.1658 21.5889 57.1658 21.256C57.1658 21.0148 57.0805 20.8173 56.9087 20.6625C56.7364 20.5073 56.461 20.3697 56.0838 20.2498C55.7059 20.1289 55.1607 19.9947 54.4511 19.845C53.0637 19.5698 52.0277 19.151 51.3413 18.5886C50.6532 18.0273 50.3091 17.2241 50.3091 16.1807C50.3091 15.4691 50.5075 14.8356 50.9019 14.2793C51.2981 13.7235 51.8587 13.2903 52.5856 12.9808C53.3147 12.6702 54.1591 12.516 55.1209 12.516ZM119.562 15.6129C120.548 15.6129 121.382 15.8104 122.063 16.2064C122.745 16.6019 123.254 17.1466 123.593 17.8405C123.929 18.535 124.099 19.3232 124.099 20.2067V20.636C124.099 20.7626 124.057 20.8685 123.971 20.955C123.885 21.0405 123.779 21.0837 123.652 21.0837H118.206V21.1869C118.217 21.7033 118.337 22.1193 118.567 22.4344C118.795 22.7499 119.122 22.9075 119.545 22.9075C119.821 22.9075 120.041 22.8531 120.207 22.7433C120.373 22.6352 120.531 22.4943 120.679 22.3218C120.783 22.208 120.865 22.1365 120.928 22.1077C120.992 22.0788 121.092 22.065 121.229 22.065H123.481C123.584 22.065 123.673 22.096 123.747 22.1592C123.822 22.2225 123.858 22.2995 123.858 22.3911C123.858 22.6901 123.689 23.039 123.352 23.4411C123.013 23.8421 122.521 24.1866 121.874 24.4728C121.226 24.7595 120.462 24.9032 119.581 24.9032C118.182 24.9032 117.083 24.5272 116.28 23.7767C115.478 23.0251 115.066 21.9329 115.044 20.4985V19.9649C115.088 18.6009 115.512 17.5338 116.315 16.765C117.116 15.9973 118.199 15.6129 119.562 15.6129ZM134.134 12.516C134.261 12.516 134.367 12.5565 134.451 12.6364C134.537 12.7168 134.581 12.8194 134.581 12.9453V24.3013C134.581 24.4277 134.537 24.531 134.451 24.6108C134.367 24.6912 134.261 24.7311 134.134 24.7311H132.088C131.974 24.7311 131.874 24.6885 131.787 24.6025C131.703 24.5165 131.658 24.4161 131.658 24.3013V23.7677C131.041 24.5243 130.153 24.9031 128.996 24.9031C127.885 24.9031 127.011 24.5531 126.375 23.8536C125.74 23.1543 125.398 22.1563 125.354 20.8601L125.335 20.2577L125.354 19.6392C125.398 18.3884 125.742 17.405 126.384 16.6883C127.024 15.9717 127.895 15.6128 128.996 15.6128C130.027 15.6128 130.857 15.9456 131.487 16.6101V12.9453C131.487 12.8194 131.531 12.7168 131.615 12.6364C131.703 12.5565 131.803 12.516 131.918 12.516H134.134ZM64.5217 15.7842C64.6475 15.7842 64.7545 15.8247 64.8392 15.9057C64.9246 15.985 64.9684 16.0887 64.9684 16.2146V24.3013C64.9684 24.4277 64.9246 24.531 64.8392 24.6108C64.7545 24.6912 64.6475 24.7306 64.5217 24.7306H62.3738C62.2591 24.7306 62.1583 24.6885 62.073 24.6025C61.9866 24.5165 61.9433 24.4161 61.9433 24.3013V16.2146C61.9433 16.0887 61.9866 15.985 62.073 15.9057C62.1583 15.8247 62.2591 15.7842 62.3738 15.7842H64.5217ZM77.6496 15.6128C78.5893 15.6128 79.3543 15.9306 79.9444 16.568C80.5333 17.2042 80.8281 18.1533 80.8281 19.4146V24.3013C80.8281 24.4161 80.7893 24.5165 80.7084 24.6025C80.6281 24.6885 80.525 24.7306 80.3992 24.7306H78.2861C78.1599 24.7306 78.054 24.6912 77.9671 24.6108C77.8817 24.531 77.8386 24.4277 77.8386 24.3013V19.535C77.8386 19.008 77.7266 18.6208 77.5039 18.374C77.2801 18.1277 76.9798 18.004 76.6019 18.004C76.2468 18.004 75.957 18.1277 75.7337 18.374C75.51 18.6208 75.3981 19.008 75.3981 19.535V24.3013C75.3981 24.4161 75.3587 24.5165 75.2778 24.6025C75.1981 24.6885 75.0944 24.7306 74.9687 24.7306H72.8556C72.7299 24.7306 72.6235 24.6912 72.5371 24.6108C72.4512 24.531 72.4079 24.4277 72.4079 24.3013V19.535C72.4079 19.008 72.2933 18.6208 72.0656 18.374C71.8362 18.1277 71.5381 18.004 71.1719 18.004C70.8168 18.004 70.5242 18.1277 70.2949 18.374C70.0661 18.6208 69.9514 19.0019 69.9514 19.5177V24.3013C69.9514 24.4161 69.9104 24.5165 69.8306 24.6025C69.7508 24.6885 69.6477 24.7306 69.5214 24.7306H67.3569C67.2422 24.7306 67.1413 24.6885 67.056 24.6025C66.9696 24.5165 66.9264 24.4161 66.9264 24.3013V16.2146C66.9264 16.0887 66.9696 15.985 67.056 15.9057C67.1413 15.8247 67.2422 15.7842 67.3569 15.7842H69.3497C69.4754 15.7842 69.5791 15.8247 69.6583 15.9057C69.7387 15.985 69.7791 16.0887 69.7791 16.2146V16.7993C70.0545 16.467 70.4096 16.1863 70.8445 15.9567C71.2794 15.7276 71.7736 15.6128 72.3226 15.6128C73.5825 15.6128 74.4473 16.1059 74.9165 17.0921C75.1925 16.6567 75.5758 16.3012 76.0695 16.026C76.5615 15.7504 77.0884 15.6128 77.6496 15.6128ZM96.1922 12.5159C96.318 12.5159 96.421 12.5563 96.5014 12.6362C96.5806 12.7166 96.6216 12.8198 96.6216 12.9457V24.3011C96.6216 24.416 96.5806 24.5164 96.5014 24.6023C96.421 24.6889 96.318 24.731 96.1922 24.731H94.0436C93.9184 24.731 93.8115 24.6917 93.7268 24.6106C93.6398 24.5308 93.5966 24.4276 93.5966 24.3011V12.9457C93.5966 12.8198 93.6398 12.7166 93.7268 12.6362C93.8115 12.5563 93.9184 12.5159 94.0436 12.5159H96.1922ZM101.158 15.7842C101.284 15.7842 101.39 15.8247 101.476 15.9057C101.561 15.985 101.605 16.0887 101.605 16.2146V24.3013C101.605 24.4277 101.561 24.531 101.476 24.6108C101.39 24.6912 101.284 24.7306 101.158 24.7306H99.0101C98.8954 24.7306 98.7946 24.6885 98.7092 24.6025C98.6228 24.5165 98.5796 24.4161 98.5796 24.3013V16.2146C98.5796 16.0887 98.6228 15.985 98.7092 15.9057C98.7946 15.8247 98.8954 15.7842 99.0101 15.7842H101.158ZM113 12C113.125 12 113.227 12.0394 113.308 12.1204C113.388 12.2008 113.428 12.304 113.428 12.4299V13.9098C113.428 14.0246 113.388 14.1244 113.308 14.2104C113.227 14.2969 113.125 14.3391 113 14.3391H108.583C108.215 14.3391 107.955 14.4228 107.799 14.5887C107.645 14.7551 107.569 15.0108 107.569 15.3547V15.784H113C113.125 15.784 113.227 15.8251 113.308 15.9055C113.388 15.9854 113.428 16.0891 113.428 16.215V24.3011C113.428 24.416 113.388 24.5164 113.308 24.6023C113.227 24.6889 113.125 24.731 113 24.731H110.901C110.776 24.731 110.67 24.6917 110.584 24.6106C110.499 24.5308 110.456 24.4276 110.456 24.3011V18.1248H107.569V24.3011C107.569 24.416 107.529 24.5164 107.449 24.6023C107.367 24.6889 107.264 24.731 107.138 24.731H105.041C104.916 24.731 104.809 24.6917 104.724 24.6106C104.638 24.5308 104.596 24.4276 104.596 24.3011V18.1248H103.306C103.181 18.1248 103.074 18.0849 102.989 18.0044C102.902 17.9234 102.86 17.8208 102.86 17.6943V16.215C102.86 16.0891 102.902 15.9854 102.989 15.9055C103.074 15.8251 103.181 15.784 103.306 15.784H104.596V15.2682C104.596 14.1217 104.927 13.2902 105.591 12.7743C106.256 12.2574 107.206 12 108.444 12H113ZM129.992 18.0046C129.477 18.0046 129.107 18.156 128.884 18.46C128.661 18.7639 128.532 19.185 128.497 19.7241L128.48 20.2577L128.497 20.7913C128.532 21.3304 128.661 21.752 128.884 22.0554C129.107 22.3599 129.477 22.5125 129.992 22.5125C130.484 22.5125 130.852 22.3544 131.093 22.0388C131.334 21.7231 131.465 21.3249 131.487 20.8434C131.51 20.5218 131.522 20.3037 131.522 20.1889C131.522 20.063 131.51 19.8511 131.487 19.5533C131.465 19.1056 131.33 18.7351 131.084 18.4428C130.837 18.1505 130.473 18.0046 129.992 18.0046ZM87.2894 18.0041C86.7969 18.0041 86.4306 18.1617 86.1902 18.4772C85.9497 18.7923 85.8185 19.1917 85.7946 19.6732C85.785 19.7975 85.7799 19.9692 85.7785 20.1893L85.778 20.3271C85.778 20.6023 85.783 20.8147 85.7946 20.9634C85.8185 21.411 85.9525 21.7804 86.1985 22.0727C86.445 22.3656 86.8085 22.512 87.2894 22.512C87.8057 22.512 88.1747 22.36 88.3986 22.0555C88.6218 21.7521 88.7509 21.33 88.7842 20.7914C88.7958 20.6771 88.8025 20.4985 88.8025 20.2578C88.8025 20.0165 88.7958 19.839 88.7842 19.7242C88.7509 19.1851 88.6218 18.7635 88.3986 18.4601C88.1747 18.1561 87.8057 18.0041 87.2894 18.0041ZM119.562 17.5571C119.127 17.5571 118.792 17.709 118.558 18.0125C118.323 18.3164 118.206 18.7441 118.206 19.2943V19.3287H120.937V19.2943C120.937 18.7441 120.817 18.3164 120.576 18.0125C120.335 17.709 119.999 17.5571 119.562 17.5571ZM64.5217 12.0512C64.6475 12.0512 64.7545 12.0945 64.8392 12.1804C64.9246 12.2664 64.9684 12.3724 64.9684 12.4983V14.0985C64.9684 14.2255 64.9246 14.3309 64.8392 14.4169C64.7545 14.5029 64.6475 14.5462 64.5217 14.5462H62.3738C62.2463 14.5462 62.1445 14.5029 62.063 14.4169C61.9837 14.3309 61.9433 14.2255 61.9433 14.0985V12.4983C61.9433 12.3724 61.9866 12.2664 62.073 12.1804C62.1583 12.0945 62.2591 12.0512 62.3738 12.0512H64.5217ZM101.158 12.0512C101.284 12.0512 101.39 12.0945 101.476 12.1804C101.561 12.2664 101.605 12.3724 101.605 12.4983V14.0985C101.605 14.2255 101.561 14.3309 101.476 14.4169C101.39 14.5029 101.284 14.5462 101.158 14.5462H99.0101C98.8827 14.5462 98.7807 14.5029 98.6993 14.4169C98.6201 14.3309 98.5796 14.2255 98.5796 14.0985V12.4983C98.5796 12.3724 98.6228 12.2664 98.7092 12.1804C98.7946 12.0945 98.8954 12.0512 99.0101 12.0512H101.158Z" fill="#111111"/>
<circle cx="20" cy="20" r="20" fill="#070906"/>
<path fill-rule="evenodd" clip-rule="evenodd" d="M28.4676 17.9282V25.1119L28.0221 25.5607L24.4572 29.1535L22.2295 31.3982C21.2445 32.3901 19.6489 32.3901 18.6646 31.3982C17.6803 30.4063 17.6803 28.7979 18.6646 27.806L20.8923 25.5607L24.4572 21.9693L24.9027 21.5203L28.4676 17.9282ZM27.5767 17.0302L24.0118 20.6223L23.5662 21.0712L20.0013 24.6634L19.5558 25.1123H12.426L16.4364 21.0712L20.0013 17.4791L20.4469 17.0302H27.5767ZM17.7732 10.7439C18.7576 9.75204 20.3538 9.75204 21.3381 10.7439C22.3225 11.7357 22.3225 13.3441 21.3381 14.336L15.0994 20.6224L11.5352 24.2138V17.0302L11.9807 16.5807L15.5449 12.9892L17.7732 10.7439Z" fill="#FFAD00"/>
</svg>
