<svg width="177" height="40" viewBox="0 0 177 40" fill="none" xmlns="http://www.w3.org/2000/svg">
<path d="M50 28.1228V12.0195H53.0168V25.3576H59.3237L59.1082 28.1228H50Z" fill="#111111"/>
<path d="M78.207 28.1228H74.9746L73.4393 23.8937H67.3786L65.8433 28.1228H62.7188L68.7254 12.0195H72.2271L78.207 28.1228ZM72.6312 21.4538L71.015 17.0891C70.8894 16.7457 70.7816 16.4204 70.6918 16.1131C70.62 15.8059 70.5481 15.5077 70.4763 15.2185H70.3416C70.2698 15.5077 70.189 15.8059 70.0992 16.1131C70.0274 16.4204 69.9286 16.7457 69.8029 17.0891L68.1328 21.4538H72.6312Z" fill="#111111"/>
<path d="M92.9923 12.0195L87.1472 28.1228H83.6186L77.7734 12.0195H81.0327L84.8577 22.8364C84.9654 23.1798 85.0642 23.5232 85.1539 23.8665C85.2437 24.21 85.3245 24.5262 85.3964 24.8154H85.5041C85.5759 24.5262 85.6568 24.21 85.7465 23.8665C85.8363 23.5232 85.9351 23.1798 86.0428 22.8364L89.8946 12.0195H92.9923Z" fill="#111111"/>
<path d="M106.518 12.0195L106.276 14.7305H99.1379V18.6886H105.064V21.3454H99.1379V25.4119H106.653V28.1228H96.1211V12.0195H106.518Z" fill="#111111"/>
<path d="M124.9 12.0195V28.1228H122.26L115.499 18.6072C115.265 18.3 115.05 17.9837 114.852 17.6584C114.655 17.3331 114.475 17.0258 114.314 16.7367H114.206V28.1228H111.297V12.0195H114.26L120.698 21.0743C120.931 21.3996 121.146 21.7249 121.344 22.0502C121.56 22.3574 121.739 22.6557 121.882 22.9448H121.99V12.0195H124.9Z" fill="#111111"/>
<path d="M144.158 20.0712C144.158 21.6617 143.8 23.0623 143.081 24.2732C142.363 25.4841 141.339 26.433 140.011 27.1197C138.681 27.7885 137.101 28.1228 135.27 28.1228H129.856V12.0195H135.27C137.101 12.0195 138.681 12.3629 140.011 13.0497C141.339 13.7184 142.363 14.6582 143.081 15.8691C143.8 17.062 144.158 18.4627 144.158 20.0712ZM141.007 20.0712C141.007 18.9325 140.773 17.9566 140.306 17.1433C139.839 16.33 139.175 15.7065 138.314 15.2727C137.451 14.839 136.437 14.6221 135.27 14.6221H132.873V25.5203H135.27C136.455 25.5203 137.469 25.3034 138.314 24.8697C139.175 24.4359 139.839 23.8123 140.306 22.999C140.773 22.1677 141.007 21.1917 141.007 20.0712Z" fill="#111111"/>
<path d="M158.922 12.0195L158.678 14.7305H151.541V18.6886H157.467V21.3454H151.541V25.4119H159.056V28.1228H148.523V12.0195H158.922Z" fill="#111111"/>
<path d="M175.2 17.3059C175.2 18.4265 174.886 19.3753 174.257 20.1525C173.647 20.9116 172.874 21.4357 171.94 21.7249L176.25 28.1228H172.722L168.951 22.4568H166.419V28.1228H163.402V12.0195H168.736C170.082 12.0195 171.24 12.2274 172.21 12.6431C173.18 13.0407 173.916 13.6371 174.419 14.4323C174.939 15.2095 175.2 16.1674 175.2 17.3059ZM172.129 17.3059C172.129 16.6553 171.977 16.1312 171.671 15.7336C171.383 15.3179 170.98 15.0197 170.459 14.839C169.939 14.6402 169.328 14.5408 168.627 14.5408H166.419V20.0712H168.627C169.328 20.0712 169.939 19.9717 170.459 19.773C170.98 19.5742 171.383 19.276 171.671 18.8783C171.977 18.4627 172.129 17.9385 172.129 17.3059Z" fill="#111111"/>
<circle cx="20" cy="20" r="20" fill="#7E54E2"/>
<path d="M19.0268 29.8581C16.9524 28.8321 15.5932 25.7984 15.4803 22.81C15.3674 19.8216 16.0661 17.8247 18.2424 16.3445C18.8955 15.9003 19.2844 14.9905 20.5375 15.348C21.7905 15.7054 23.3119 17.2789 23.9596 19.8742C24.6073 22.4695 24.0814 25.0135 23.3745 26.6712C22.6676 28.3288 21.1011 30.8842 19.0268 29.8581Z" fill="white"/>
<path d="M14.9311 25.8979C14.313 23.9177 14.2886 21.5313 14.5948 20.5389C14.6381 20.4238 14.5948 20.3124 14.4648 20.2894C14.2044 20.2183 13.7822 20.1263 13.0879 20.0523C12.042 19.9407 9.66861 19.6225 8.54343 20.955C7.41824 22.2873 7.80912 23.496 9.58321 26.8167C11.3573 30.1375 12.6369 31.0936 14.0595 31.1377C15.0125 31.1673 16.0464 30.4711 16.6252 30.0083C16.9006 29.7881 16.9411 29.3965 16.7473 29.101C16.2003 28.2667 15.1584 26.6258 14.9311 25.8979Z" fill="white"/>
<path d="M7.7154 16.8441C7.83159 18.1507 8.28401 19.2136 8.44749 19.5624C8.47865 19.6288 8.55952 19.6527 8.62444 19.619C8.93903 19.4561 9.87033 19.0387 11.2442 18.9852C12.9567 18.9186 13.9853 19.4804 14.663 19.4251C14.8722 19.408 14.9598 18.7529 14.8624 18.4151C14.765 18.0773 13.6177 16.5317 12.5605 15.5738C11.3465 14.4736 10.085 13.2153 9.00796 13.3509C7.93093 13.4865 7.57281 15.2408 7.7154 16.8441Z" fill="white"/>
<path d="M20.1253 14.235C19.2406 14.2783 18.6773 14.5128 18.3074 14.8842C18.2312 14.9608 18.0728 14.8921 18.089 14.7849C18.3224 13.2449 18.6865 11.3295 19.8506 10.806C21.4688 10.0784 22.1564 10.3695 23.7859 9.74751C25.3622 9.14588 26.0227 10.3217 25.841 12.3273C25.7027 13.8544 24.7481 15.9993 24.1118 17.2512C24.0737 17.326 23.9672 17.3232 23.9291 17.2484C23.0382 15.4973 21.2506 14.1799 20.1253 14.235Z" fill="white"/>
<path d="M24.387 30.872C23.9815 30.9095 23.1746 30.665 22.8267 30.2356C22.6489 30.0161 22.6872 29.7045 22.8066 29.4479C23.1942 28.6158 24.0964 27.6874 24.4229 26.8638C25.0811 25.2032 25.3034 23.7419 25.2029 22.8071C25.0608 21.486 25.9147 20.7667 27.746 19.9816C30.2367 18.9138 31.9235 21.3313 31.5556 22.6893C31.1414 24.2186 31.1003 25.939 29.4613 27.908C28.1838 29.4426 25.5799 30.7615 24.387 30.872Z" fill="white"/>
<path d="M29.8858 16.0507C31.9293 16.0885 33.152 17.1145 31.291 19.4567C31.24 19.5208 31.1463 19.5329 31.0804 19.4844C30.4761 19.0403 29.4715 18.4804 28.0935 18.8297C27.1098 19.079 25.9342 19.7604 25.2025 20.5736C25.1652 20.615 25.0947 20.5941 25.0872 20.5387C25.0446 20.2245 24.9266 19.4679 24.712 18.8987C24.6587 18.7571 24.6546 18.5978 24.7238 18.4633C26.0124 15.9593 28.6328 16.0275 29.8858 16.0507Z" fill="white"/>
<path d="M32.2862 10.9713C32.5217 12.8221 31.1977 14.0203 30.1416 14.3689C29.0855 14.7175 27.5223 14.5167 27.4459 13.7124C27.3694 12.9081 28.9406 11.2334 29.5758 9.75529C30.211 8.27718 32.0507 9.12056 32.2862 10.9713Z" fill="white"/>
</svg>
