<svg width="30" height="30" viewBox="0 0 30 30" fill="none" xmlns="http://www.w3.org/2000/svg">
<g clip-path="url(#clip0_1009_236)">
<path d="M15.0001 11.7858C22.6926 11.7858 28.9287 9.38734 28.9287 6.42868C28.9287 3.47001 22.6926 1.07153 15.0001 1.07153C7.30757 1.07153 1.07153 3.47001 1.07153 6.42868C1.07153 9.38734 7.30757 11.7858 15.0001 11.7858Z" stroke="white" stroke-width="1.5" stroke-linecap="round" stroke-linejoin="round"/>
<path d="M1.07153 6.42896V23.5718C1.07153 26.529 7.30725 28.929 15.0001 28.929C22.693 28.929 28.9287 26.529 28.9287 23.5718V6.42896" stroke="white" stroke-width="1.5" stroke-linecap="round" stroke-linejoin="round"/>
<path d="M28.9287 15C28.9287 17.9571 22.693 20.3571 15.0001 20.3571C7.30725 20.3571 1.07153 17.9571 1.07153 15" stroke="white" stroke-width="1.5" stroke-linecap="round" stroke-linejoin="round"/>
</g>
<defs>
<clipPath id="clip0_1009_236">
<rect width="30" height="30" fill="white"/>
</clipPath>
</defs>
</svg>
