<svg width="30" height="30" viewBox="0 0 30 30" fill="none" xmlns="http://www.w3.org/2000/svg">
<path d="M9.64369 27.8538C14.3776 27.8538 18.2151 24.0162 18.2151 19.2824C18.2151 14.5485 14.3776 10.7109 9.64369 10.7109C4.90982 10.7109 1.07227 14.5485 1.07227 19.2824C1.07227 24.0162 4.90982 27.8538 9.64369 27.8538Z" stroke="white" stroke-width="1.5" stroke-linecap="round" stroke-linejoin="round"/>
<path d="M20.3585 27.8538C25.0924 27.8538 28.93 24.0162 28.93 19.2824C28.93 14.5485 25.0924 10.7109 20.3585 10.7109C15.6247 10.7109 11.7871 14.5485 11.7871 19.2824C11.7871 24.0162 15.6247 27.8538 20.3585 27.8538Z" stroke="white" stroke-width="1.5" stroke-linecap="round" stroke-linejoin="round"/>
<path d="M15.0011 19.2835C19.735 19.2835 23.5725 15.4459 23.5725 10.7121C23.5725 5.97818 19.735 2.14062 15.0011 2.14062C10.2672 2.14062 6.42969 5.97818 6.42969 10.7121C6.42969 15.4459 10.2672 19.2835 15.0011 19.2835Z" stroke="white" stroke-width="1.5" stroke-linecap="round" stroke-linejoin="round"/>
</svg>
