<svg width="146" height="40" viewBox="0 0 146 40" fill="none" xmlns="http://www.w3.org/2000/svg">
<path d="M17.2356 7.3598H38.7275L39.0335 5.99448C39.4809 3.8759 37.88 1.875 35.7144 1.875H14.8345C12.1274 1.875 9.79697 3.75818 9.20847 6.39467L4.64172 27.4865C4.19447 29.605 5.79517 31.606 7.96085 31.606H9.232L13.8929 10.0434C14.246 8.48972 15.6349 7.3598 17.2356 7.3598Z" fill="#00CDFA"/>
<path d="M39.9995 7.35938H38.7283L34.0673 28.9219C33.7378 30.4755 32.349 31.6055 30.7483 31.6055H9.25633L8.95031 32.9709C8.50306 35.0894 10.1038 37.0904 12.2694 37.0904H33.1493C35.8565 37.0904 38.1868 35.207 38.7753 32.5707L43.3422 11.5024C43.7893 9.36027 42.1652 7.35938 39.9995 7.35938Z" fill="url(#paint0_linear_788_14069)"/>
<path d="M34.0651 28.9219L38.7259 7.35938H17.2339C15.6332 7.35938 14.2444 8.46576 13.9148 10.0429L9.25391 31.6055H30.7459C32.3466 31.6055 33.7119 30.4755 34.0651 28.9219Z" fill="#3A00FF"/>
<path d="M16.2467 23.3748L14.6914 15.2891H17.1304L17.8815 20.3349L20.347 15.2891H21.9905L22.9539 20.3349L25.216 15.2891H27.655L23.7049 23.3748H21.6637L20.6915 18.6383L18.3145 23.3748H16.2467Z" fill="white"/>
<path d="M26.7988 22.0684L28.0713 20.5927C28.6457 21.2995 29.3703 21.6619 30.2628 21.6619C30.8372 21.6619 31.3408 21.4234 31.4205 21.0257C31.447 20.787 31.2878 20.5839 30.9167 20.407C30.8283 20.3629 30.634 20.2922 30.3247 20.1862C29.715 19.9475 29.4498 19.8592 28.9197 19.5234C28.1773 19.0639 27.8238 18.4277 27.9475 17.3319C28.1862 15.8385 29.5558 15.0078 31.2878 15.0078C32.472 15.0078 33.444 15.3966 34.2305 16.1654L32.9757 17.6324C32.4543 17.1464 31.8535 16.9077 31.173 16.9077C30.6252 16.9077 30.2982 17.0667 30.2275 17.4114C30.1657 17.6942 30.3158 17.9327 30.6693 18.0919C30.7842 18.1537 31.0228 18.2509 31.3763 18.3834C31.7297 18.516 32.0302 18.6309 32.2777 18.7722C33.0728 19.108 34.0097 19.8945 33.7268 21.0964C33.5943 21.8829 33.1967 22.5014 32.525 22.9432C31.8623 23.385 31.0582 23.606 30.1568 23.606C28.7075 23.5972 27.5853 23.0934 26.7988 22.0684Z" fill="white"/>
<path d="M56.4214 26.6474H54.1376L49.6641 13.1328H52.6307L55.3619 22.2211L58.4227 13.1328H60.1416L63.2729 22.2211L65.9571 13.1328H68.9236L64.4737 26.6474H62.1899L59.3174 17.7946L56.4214 26.6474Z" fill="#111111"/>
<path d="M71.4648 26.6481H68.875V16.6887H71.3707V18.0307C71.9593 16.9477 72.8775 16.4297 74.1018 16.4297C74.5022 16.4297 74.9023 16.5003 75.3027 16.6416L75.0907 19.1137C74.6433 18.9726 74.2667 18.9019 73.9135 18.9019C73.16 18.9019 72.5715 19.1609 72.1242 19.6552C71.7003 20.1497 71.4648 20.9032 71.4648 21.9156V26.6481Z" fill="#111111"/>
<path d="M78.7876 13.9758C78.7876 14.4232 78.6465 14.7999 78.3403 15.106C78.0343 15.412 77.6576 15.5533 77.2103 15.5533C76.7628 15.5533 76.3861 15.412 76.0801 15.106C75.774 14.7999 75.6328 14.4232 75.6328 13.9758C75.6328 13.5285 75.774 13.1518 76.0801 12.8692C76.3861 12.5631 76.7628 12.4219 77.2103 12.4219C77.6576 12.4219 78.0343 12.5631 78.3403 12.8692C78.6465 13.1518 78.7876 13.5285 78.7876 13.9758ZM78.4816 16.6834V26.6429H75.8918V16.6834H78.4816Z" fill="#111111"/>
<path d="M86.49 24.0339L87.2669 26.0588C86.4429 26.6004 85.4539 26.8829 84.3239 26.8829C83.1701 26.8829 82.3226 26.5533 81.734 25.8941C81.1453 25.2348 80.8628 24.2459 80.8628 22.9509V18.8306H79.2383V16.6645H80.8863V13.1328H83.4528V16.6645H86.749V18.8306H83.4528V22.7861C83.4528 23.9634 83.9236 24.5519 84.8654 24.5519C85.3363 24.5519 85.9013 24.3871 86.49 24.0339Z" fill="#111111"/>
<path d="M97.2712 21.4447C97.2712 21.7507 97.2476 22.1276 97.1769 22.5749H89.6897C90.0666 23.9876 91.0317 24.6939 92.5857 24.6939C93.7394 24.6939 94.8226 24.3642 95.8114 23.6814L96.8237 25.4944C95.5524 26.4126 94.1162 26.8599 92.4681 26.8599C90.7257 26.8599 89.3837 26.3656 88.4419 25.3531C87.5237 24.3642 87.0527 23.1164 87.0527 21.6566C87.0527 20.1262 87.5237 18.8784 88.4891 17.9131C89.4544 16.9241 90.7022 16.4297 92.2326 16.4297C93.6924 16.4297 94.8696 16.8771 95.8114 17.7717C96.8002 18.6899 97.2712 19.9142 97.2712 21.4447ZM92.2797 18.5722C91.6439 18.5722 91.0789 18.7606 90.6316 19.1372C90.1842 19.5141 89.8781 20.0084 89.7134 20.6677H94.7754C94.6577 20.0321 94.3752 19.5141 93.9277 19.1372C93.4804 18.7606 92.9389 18.5722 92.2797 18.5722Z" fill="#111111"/>
<path d="M101.603 26.9076C99.8604 26.9076 98.4949 26.2719 97.4824 24.9769L98.8481 23.3524C99.2013 23.7762 99.6251 24.1057 100.119 24.3647C100.614 24.6237 101.108 24.7414 101.603 24.7414C102.003 24.7414 102.309 24.6472 102.592 24.4589C102.851 24.2706 102.992 24.0351 102.992 23.7526C102.992 23.3994 102.756 23.1169 102.286 22.9051C102.144 22.8344 101.744 22.6931 101.108 22.4576C100.543 22.2457 100.119 22.0809 99.8369 21.9161C98.6833 21.3746 98.1183 20.5034 98.1183 19.3262C98.1183 18.4551 98.4478 17.7487 99.1306 17.1601C99.7899 16.595 100.708 16.3125 101.838 16.3125C103.251 16.3125 104.428 16.7834 105.323 17.7487L104.051 19.4204C103.345 18.7611 102.592 18.4316 101.768 18.4316C101.438 18.4316 101.155 18.5021 100.944 18.6669C100.732 18.8317 100.614 19.0201 100.614 19.2556C100.614 19.6794 100.896 19.9854 101.485 20.1737C102.78 20.6682 103.581 20.9744 103.887 21.1391C105.017 21.7277 105.558 22.5754 105.558 23.6584C105.558 24.6002 105.182 25.3536 104.452 25.9657C103.745 26.6016 102.804 26.9076 101.603 26.9076Z" fill="#111111"/>
<path d="M106.027 21.6568C106.027 20.1734 106.522 18.9491 107.534 17.9366C108.547 16.9243 109.818 16.4062 111.372 16.4062C112.926 16.4062 114.197 16.9243 115.21 17.9366C116.199 18.9256 116.717 20.1734 116.717 21.6568C116.717 23.1401 116.222 24.3879 115.21 25.3768C114.197 26.3891 112.926 26.8836 111.372 26.8836C109.818 26.8836 108.547 26.3891 107.534 25.3768C106.522 24.3879 106.027 23.1401 106.027 21.6568ZM109.394 23.6816C109.912 24.2231 110.572 24.5056 111.372 24.5056C112.149 24.5056 112.785 24.2231 113.326 23.6816C113.868 23.1164 114.127 22.4336 114.127 21.6568C114.127 20.8798 113.868 20.1969 113.326 19.6554C112.785 19.1139 112.149 18.8313 111.372 18.8313C110.572 18.8313 109.912 19.1139 109.394 19.6554C108.876 20.1969 108.617 20.8563 108.617 21.6568C108.617 22.4573 108.876 23.1399 109.394 23.6816Z" fill="#111111"/>
<path d="M120.367 26.6481H117.777V16.6887H120.297V18.0777C120.556 17.5834 120.979 17.1831 121.545 16.8771C122.11 16.571 122.722 16.4297 123.428 16.4297C124.511 16.4297 125.429 16.7829 126.183 17.5127C126.936 18.2426 127.313 19.2551 127.313 20.5736V26.6716H124.723V21.2799C124.723 20.5029 124.535 19.8907 124.158 19.4669C123.781 19.0431 123.263 18.8077 122.628 18.8077C121.945 18.8077 121.403 19.0431 120.979 19.5141C120.556 19.9849 120.344 20.5971 120.344 21.3269V26.6481H120.367Z" fill="#111111"/>
<path d="M131.741 13.9758C131.741 14.4232 131.6 14.7999 131.293 15.106C130.987 15.412 130.611 15.5533 130.163 15.5533C129.716 15.5533 129.339 15.412 129.033 15.106C128.727 14.7999 128.586 14.4232 128.586 13.9758C128.586 13.5285 128.727 13.1518 129.033 12.8692C129.339 12.5631 129.716 12.4219 130.163 12.4219C130.611 12.4219 130.987 12.5631 131.293 12.8692C131.6 13.1518 131.741 13.5285 131.741 13.9758ZM131.435 16.6834V26.6429H128.845V16.6834H131.435Z" fill="#111111"/>
<path d="M137.766 26.8834C136.236 26.8834 134.965 26.3889 133.952 25.4236C132.963 24.4583 132.469 23.2104 132.469 21.6801C132.469 20.1496 132.963 18.9018 133.976 17.9364C134.988 16.9476 136.283 16.4531 137.837 16.4531C138.849 16.4531 139.791 16.6886 140.615 17.1829C141.439 17.6774 142.075 18.3603 142.475 19.2314L140.403 20.3616C139.791 19.3491 138.944 18.8546 137.861 18.8546C137.036 18.8546 136.354 19.1373 135.836 19.6788C135.294 20.2203 135.035 20.8796 135.035 21.6801C135.035 22.5041 135.294 23.1869 135.812 23.7284C136.354 24.2699 137.013 24.5289 137.813 24.5289C138.331 24.5289 138.826 24.3876 139.32 24.1051C139.791 23.8226 140.144 23.4694 140.356 23.0221L142.452 24.2464C142.028 25.0469 141.392 25.6826 140.568 26.1771C139.721 26.6244 138.779 26.8834 137.766 26.8834Z" fill="#111111"/>
<defs>
<linearGradient id="paint0_linear_788_14069" x1="8.87454" y1="22.2282" x2="43.408" y2="22.2282" gradientUnits="userSpaceOnUse">
<stop stop-color="#FFB3FF"/>
<stop offset="0.5335" stop-color="#FF76DF"/>
<stop offset="1" stop-color="#C239C6"/>
</linearGradient>
</defs>
</svg>
