<svg width="30" height="30" viewBox="0 0 30 30" fill="none" xmlns="http://www.w3.org/2000/svg">
<path d="M11.2065 4.82227L12.1279 2.44369C12.2833 2.04097 12.5567 1.69457 12.9123 1.44986C13.2679 1.20515 13.6891 1.07354 14.1208 1.07227H15.8779C16.3096 1.07354 16.7308 1.20515 17.0864 1.44986C17.442 1.69457 17.7154 2.04097 17.8708 2.44369L18.7922 4.82227L21.9208 6.62227L24.4494 6.23655C24.8704 6.1794 25.2989 6.24871 25.6805 6.43567C26.062 6.62263 26.3794 6.9188 26.5922 7.28655L27.4494 8.78655C27.669 9.16016 27.7702 9.59158 27.7396 10.0239C27.709 10.4562 27.548 10.869 27.2779 11.208L25.7137 13.2008V16.8008L27.3208 18.7937C27.5909 19.1326 27.7519 19.5455 27.7825 19.9778C27.8131 20.4101 27.7119 20.8415 27.4922 21.2151L26.6351 22.7151C26.4223 23.0829 26.1049 23.379 25.7233 23.566C25.3418 23.753 24.9133 23.8223 24.4922 23.7651L21.9637 23.3794L18.8351 25.1794L17.9137 27.558C17.7583 27.9607 17.4849 28.3071 17.1293 28.5518C16.7737 28.7965 16.3525 28.9281 15.9208 28.9294H14.1208C13.6891 28.9281 13.2679 28.7965 12.9123 28.5518C12.5567 28.3071 12.2833 27.9607 12.1279 27.558L11.2065 25.1794L8.07795 23.3794L5.54938 23.7651C5.12834 23.8223 4.69982 23.753 4.31827 23.566C3.93671 23.379 3.61935 23.0829 3.40652 22.7151L2.54937 21.2151C2.32974 20.8415 2.22854 20.4101 2.25915 19.9778C2.28975 19.5455 2.45072 19.1326 2.7208 18.7937L4.28509 16.8008V13.2008L2.67795 11.208C2.40786 10.869 2.24689 10.4562 2.21629 10.0239C2.18568 9.59158 2.28688 9.16016 2.50652 8.78655L3.36366 7.28655C3.5765 6.9188 3.89386 6.62263 4.27541 6.43567C4.65696 6.24871 5.08548 6.1794 5.50652 6.23655L8.03509 6.62227L11.2065 4.82227ZM10.7137 15.0008C10.7137 15.8485 10.965 16.6771 11.4359 17.3819C11.9069 18.0866 12.5762 18.6359 13.3593 18.9603C14.1424 19.2847 15.0041 19.3696 15.8355 19.2042C16.6668 19.0388 17.4305 18.6307 18.0298 18.0313C18.6292 17.4319 19.0374 16.6683 19.2027 15.8369C19.3681 15.0056 19.2832 14.1439 18.9589 13.3608C18.6345 12.5777 18.0852 11.9083 17.3804 11.4374C16.6756 10.9665 15.847 10.7151 14.9994 10.7151C13.8627 10.7151 12.7726 11.1667 11.9689 11.9704C11.1652 12.7741 10.7137 13.8642 10.7137 15.0008V15.0008Z" stroke="white" stroke-width="1.5" stroke-linecap="round" stroke-linejoin="round"/>
</svg>
