<svg width="30" height="30" viewBox="0 0 30 30" fill="none" xmlns="http://www.w3.org/2000/svg">
<g clip-path="url(#clip0_788_261)">
<path d="M18.2132 10.7144C19.3966 10.7144 20.356 9.75504 20.356 8.57157C20.356 7.3881 19.3966 6.42871 18.2132 6.42871C17.0297 6.42871 16.0703 7.3881 16.0703 8.57157C16.0703 9.75504 17.0297 10.7144 18.2132 10.7144Z" stroke="white" stroke-width="1.5" stroke-linecap="round" stroke-linejoin="round"/>
<path d="M9.64174 21.4287C10.2335 21.4287 10.7132 20.9491 10.7132 20.3573C10.7132 19.7656 10.2335 19.2859 9.64174 19.2859C9.05001 19.2859 8.57031 19.7656 8.57031 20.3573C8.57031 20.9491 9.05001 21.4287 9.64174 21.4287Z" stroke="white" stroke-width="1.5" stroke-linecap="round" stroke-linejoin="round"/>
<path d="M9.64286 13.9288C10.8263 13.9288 11.7857 12.9694 11.7857 11.7859C11.7857 10.6025 10.8263 9.64307 9.64286 9.64307C8.45939 9.64307 7.5 10.6025 7.5 11.7859C7.5 12.9694 8.45939 13.9288 9.64286 13.9288Z" stroke="white" stroke-width="1.5" stroke-linecap="round" stroke-linejoin="round"/>
<path d="M20.3992 26.3144C20.3753 25.8987 20.2309 25.4991 19.9835 25.1642C19.7362 24.8293 19.3966 24.5737 19.0064 24.4287C18.0372 24.1101 17.2134 23.4563 16.6831 22.5847C16.1529 21.7131 15.951 20.6809 16.1137 19.6738C16.2763 18.6666 16.793 17.7506 17.5707 17.0902C18.3484 16.4299 19.3362 16.0687 20.3564 16.0715H24.3635C25.0508 16.0735 25.7284 15.91 26.3393 15.5951C26.9502 15.2802 27.4764 14.8229 27.8735 14.262C28.2705 13.701 28.5269 13.0528 28.6209 12.3719C28.7149 11.6911 28.6437 10.9977 28.4135 10.3501C27.5612 7.94361 26.0639 5.81765 24.0852 4.20449C22.1064 2.59134 19.7224 1.55304 17.1936 1.20305C14.6647 0.853057 12.0883 1.20483 9.7458 2.21993C7.40332 3.23504 5.38489 4.87443 3.91103 6.95898C2.43718 9.04354 1.56459 11.4931 1.38861 14.04C1.21262 16.5869 1.74001 19.1331 2.91316 21.4006C4.0863 23.6681 5.86007 25.5695 8.04067 26.8971C10.2213 28.2247 12.7248 28.9275 15.2778 28.9287C16.5386 28.9322 17.7936 28.7591 19.0064 28.4144C19.4518 28.2896 19.8375 28.0088 20.0932 27.6233C20.3489 27.2378 20.4575 26.7733 20.3992 26.3144V26.3144Z" stroke="white" stroke-width="1.5" stroke-linecap="round" stroke-linejoin="round"/>
</g>
<defs>
<clipPath id="clip0_788_261">
<rect width="30" height="30" fill="white"/>
</clipPath>
</defs>
</svg>
