<svg width="30" height="30" viewBox="0 0 30 30" fill="none" xmlns="http://www.w3.org/2000/svg">
<g clip-path="url(#clip0_1009_247)">
<path d="M25.1787 21.4287C25.9204 21.4287 26.6454 21.6486 27.2621 22.0607C27.8788 22.4727 28.3594 23.0584 28.6432 23.7436C28.9271 24.4288 29.0013 25.1828 28.8566 25.9103C28.7119 26.6377 28.3548 27.3059 27.8303 27.8303C27.3059 28.3548 26.6377 28.7119 25.9103 28.8566C25.1828 29.0013 24.4288 28.9271 23.7436 28.6432C23.0584 28.3594 22.4727 27.8788 22.0607 27.2621C21.6486 26.6454 21.4287 25.9204 21.4287 25.1787V4.82153C21.4287 4.07985 21.6486 3.35483 22.0607 2.73815C22.4727 2.12146 23.0584 1.64082 23.7436 1.35699C24.4288 1.07316 25.1828 0.998896 25.9103 1.14359C26.6377 1.28828 27.3059 1.64544 27.8303 2.16988C28.3548 2.69433 28.7119 3.36252 28.8566 4.08995C29.0013 4.81737 28.9271 5.57137 28.6432 6.2566C28.3594 6.94182 27.8788 7.52749 27.2621 7.93955C26.6454 8.3516 25.9204 8.57153 25.1787 8.57153H4.82153C4.07985 8.57153 3.35483 8.3516 2.73815 7.93955C2.12146 7.52749 1.64082 6.94182 1.35699 6.2566C1.07316 5.57137 0.998896 4.81737 1.14359 4.08995C1.28828 3.36252 1.64544 2.69433 2.16988 2.16988C2.69433 1.64544 3.36252 1.28828 4.08995 1.14359C4.81737 0.998896 5.57137 1.07316 6.2566 1.35699C6.94182 1.64082 7.52749 2.12146 7.93955 2.73815C8.3516 3.35483 8.57153 4.07985 8.57153 4.82153V25.1787C8.57153 25.9204 8.3516 26.6454 7.93955 27.2621C7.52749 27.8788 6.94182 28.3594 6.2566 28.6432C5.57137 28.9271 4.81737 29.0013 4.08995 28.8566C3.36252 28.7119 2.69433 28.3548 2.16988 27.8303C1.64544 27.3059 1.28828 26.6377 1.14359 25.9103C0.998896 25.1828 1.07316 24.4288 1.35699 23.7436C1.64082 23.0584 2.12146 22.4727 2.73815 22.0607C3.35483 21.6486 4.07985 21.4287 4.82153 21.4287H25.1787Z" stroke="white" stroke-width="1.5" stroke-linecap="round" stroke-linejoin="round"/>
</g>
<defs>
<clipPath id="clip0_1009_247">
<rect width="30" height="30" fill="white"/>
</clipPath>
</defs>
</svg>
