<svg width="30" height="30" viewBox="0 0 30 30" fill="none" xmlns="http://www.w3.org/2000/svg">
<g clip-path="url(#clip0_1009_223)">
<path d="M15.0001 28.9286C22.6926 28.9286 28.9287 22.6925 28.9287 15C28.9287 7.30744 22.6926 1.07141 15.0001 1.07141C7.30757 1.07141 1.07153 7.30744 1.07153 15C1.07153 22.6925 7.30757 28.9286 15.0001 28.9286Z" stroke="white" stroke-width="1.5" stroke-linecap="round" stroke-linejoin="round"/>
<path d="M1.07153 15H28.9287" stroke="white" stroke-width="1.5" stroke-linecap="round" stroke-linejoin="round"/>
<path d="M20.3574 15C20.0942 20.0935 18.2181 24.9714 15.0002 28.9286C11.7823 24.9714 9.90621 20.0935 9.64307 15C9.90621 9.90643 11.7823 5.02852 15.0002 1.07141C18.2181 5.02852 20.0942 9.90643 20.3574 15V15Z" stroke="white" stroke-width="1.5" stroke-linecap="round" stroke-linejoin="round"/>
</g>
<defs>
<clipPath id="clip0_1009_223">
<rect width="30" height="30" fill="white"/>
</clipPath>
</defs>
</svg>
