<svg width="30" height="30" viewBox="0 0 30 30" fill="none" xmlns="http://www.w3.org/2000/svg">
<path d="M26.78 6.42729C26.6734 6.27236 26.5277 6.15338 26.36 6.08444L14.36 1.22015C14.2465 1.16705 14.1239 1.13965 14 1.13965C13.8761 1.13965 13.7535 1.16705 13.64 1.22015L1.64 6.17015C1.48146 6.21514 1.33667 6.30379 1.22 6.42729C1.0803 6.60837 1.00266 6.83523 1 7.07015V22.7559C1.00259 22.9699 1.06494 23.1781 1.17901 23.3538C1.29308 23.5295 1.45364 23.6646 1.64 23.7416L13.64 28.6916H14H14.36L26.36 23.7416C26.5464 23.6646 26.7069 23.5295 26.821 23.3538C26.9351 23.1781 26.9974 22.9699 27 22.7559V7.15587C27.0169 6.89172 26.9381 6.63076 26.78 6.42729V6.42729Z" stroke="white" stroke-width="1.5" stroke-linecap="round" stroke-linejoin="round"/>
<path d="M14 28.8433V11.7861" stroke="white" stroke-width="1.5" stroke-linecap="round" stroke-linejoin="round"/>
<path d="M14 11.7861V28.8433" stroke="white" stroke-width="1.5" stroke-linecap="round" stroke-linejoin="round"/>
<path d="M1.2207 6.51562L14.0007 11.7871L26.7807 6.51562" stroke="white" stroke-width="1.5" stroke-linecap="round" stroke-linejoin="round"/>
</svg>
